<?xml version="1.0" encoding="utf-8"?>
<!-- Generator: Adobe Illustrator 22.1.0, SVG Export Plug-In . SVG Version: 6.00 Build 0)  -->
<svg version="1.1" id="Layer_1" xmlns="http://www.w3.org/2000/svg" xmlns:xlink="http://www.w3.org/1999/xlink" x="0px" y="0px"
	 viewBox="0 0 342.8 58" style="enable-background:new 0 0 342.8 58;" xml:space="preserve">
<style type="text/css">
	.st0{fill:#37474F;}
	.st1{fill:#DDBD40;}
	.st2{fill:#7CBF4C;}
	.st3{fill:#8472BF;}
	.st4{fill:#51A3CC;}
	.st5{fill:#F27979;}
</style>
<g>
	<path class="st0" d="M83.2,41.2l-0.4-2.2h-0.1c-1.4,1.7-3.6,2.7-6.2,2.7c-4.4,0-7-3.2-7-6.7c0-5.6,5.1-8.4,12.7-8.3v-0.3
		c0-1.2-0.6-2.8-3.9-2.8c-2.2,0-4.6,0.8-6,1.6L71,20.9c1.5-0.8,4.5-1.9,8.4-1.9c7.2,0,9.5,4.3,9.5,9.4V36c0,2.1,0.1,4.1,0.3,5.3
		H83.2z M82.4,31c-3.5,0-6.3,0.8-6.3,3.4c0,1.7,1.2,2.6,2.7,2.6c1.7,0,3.1-1.1,3.5-2.5c0.1-0.4,0.1-0.8,0.1-1.2V31z"/>
	<path class="st0" d="M92.8,26.4c0-2.7-0.1-5-0.2-6.9h5.9l0.3,3h0.1c0.9-1.4,3.1-3.5,6.7-3.5c4.4,0,7.8,2.9,7.8,9.3v12.9h-6.7v-12
		c0-2.8-1-4.7-3.4-4.7c-1.9,0-3,1.3-3.4,2.5c-0.2,0.4-0.3,1.1-0.3,1.7v12.5h-6.7V26.4z"/>
	<path class="st0" d="M134,40.7c-1.2,0.5-3.5,1-6,1c-7,0-11.5-4.3-11.5-11.1c0-6.4,4.3-11.6,12.4-11.6c1.8,0,3.7,0.3,5.1,0.8l-1.1,5
		c-0.8-0.4-2-0.7-3.8-0.7c-3.5,0-5.9,2.5-5.8,6.1c0,4,2.7,6.1,5.9,6.1c1.6,0,2.8-0.3,3.9-0.7L134,40.7z"/>
	<path class="st0" d="M142.4,32.5c0.2,2.8,3,4.1,6.1,4.1c2.3,0,4.2-0.3,6-0.9l0.9,4.6c-2.2,0.9-4.9,1.3-7.8,1.3
		c-7.4,0-11.6-4.3-11.6-11.1c0-5.5,3.4-11.6,11-11.6c7,0,9.7,5.5,9.7,10.8c0,1.2-0.1,2.2-0.2,2.7H142.4z M150.4,27.9
		c0-1.6-0.7-4.4-3.8-4.4c-2.8,0-4,2.6-4.2,4.4H150.4z"/>
	<path class="st0" d="M160.5,35.3c1.2,0.8,3.8,1.6,5.8,1.6c2,0,2.9-0.7,2.9-1.8s-0.7-1.6-3.2-2.5c-4.5-1.5-6.2-4-6.2-6.5
		c0-4,3.5-7.1,8.8-7.1c2.5,0,4.8,0.6,6.1,1.2l-1.2,4.7c-1-0.5-2.8-1.2-4.7-1.2c-1.6,0-2.6,0.7-2.6,1.8c0,1,0.8,1.6,3.5,2.5
		c4.1,1.4,5.9,3.5,5.9,6.7c0,4-3.2,7-9.4,7c-2.8,0-5.4-0.6-7-1.5L160.5,35.3z"/>
	<path class="st0" d="M187.4,13.3v6.2h4.8v5h-4.8v7.9c0,2.6,0.6,3.8,2.7,3.8c0.8,0,1.5-0.1,2-0.2l0,5.1c-0.9,0.4-2.5,0.6-4.4,0.6
		c-2.2,0-4-0.8-5.1-1.9c-1.2-1.3-1.9-3.4-1.9-6.4v-8.9h-2.9v-5h2.9v-4.7L187.4,13.3z"/>
	<path class="st0" d="M207.3,19.6c-1.9,0.3-4.2,1.6-5.1,4.4H202l-0.2-4.5h-5.8c0.1,1.9,0.2,4,0.2,7.2v14.6h6.7V30.7
		c0-0.5,0-1.1,0.1-1.5c0.4-2.1,2.1-3.4,4.6-3.4c1.1,0,1.8,0.2,2.3,0.3L207.3,19.6z"/>
	<path class="st0" d="M217.9,19.5l3.2,10.7c0.4,1.3,0.8,2.9,1.1,4h0.1c0.3-1.2,0.7-2.8,1-4l2.7-10.7h7.2l-5.1,14.3
		c-3.1,8.6-5.2,12.1-7.6,14.3c-2.3,2-4.8,2.8-6.5,3l-1.4-5.7c0.8-0.1,1.9-0.5,2.9-1.2c1-0.5,2.1-1.6,2.8-2.7c0.2-0.3,0.4-0.7,0.4-1
		c0-0.2,0-0.6-0.3-1.1l-8-20.2L217.9,19.5z"/>
	<path class="st0" d="M254.2,41.9l-0.4-2.2h-0.1c-1.4,1.7-3.6,2.7-6.2,2.7c-4.4,0-7-3.2-7-6.7c0-5.6,5.1-8.4,12.7-8.3v-0.3
		c0-1.2-0.6-2.8-3.9-2.8c-2.2,0-4.6,0.8-6,1.6l-1.2-4.4c1.5-0.8,4.5-1.9,8.4-1.9c7.2,0,9.5,4.3,9.5,9.4v7.6c0,2.1,0.1,4.1,0.3,5.3
		H254.2z M253.4,31.6c-3.5,0-6.3,0.8-6.3,3.4c0,1.7,1.2,2.6,2.7,2.6c1.7,0,3.1-1.1,3.5-2.5c0.1-0.4,0.1-0.8,0.1-1.2V31.6z"/>
	<path class="st0" d="M271.8,15.4v4.7h4.8v5h-4.8V33c0,2.6,0.6,3.8,2.7,3.8c0.8,0,1.5-0.1,2-0.2l0,5.1c-0.9,0.4-2.5,0.6-4.4,0.6
		c-2.2,0-4-0.8-5.1-1.9c-1.2-1.3-1.9-3.4-1.9-6.4v-8.9h-2.9v-5h2.9v-3.2L271.8,15.4z"/>
	<path class="st0" d="M304.7,41.9l-0.4-2.2h-0.1c-1.4,1.7-3.6,2.7-6.2,2.7c-4.4,0-7-3.2-7-6.7c0-5.6,5.1-8.4,12.7-8.3v-0.3
		c0-1.2-0.6-2.8-3.9-2.8c-2.2,0-4.6,0.8-6,1.6l-1.2-4.4c1.5-0.8,4.5-1.9,8.4-1.9c7.2,0,9.5,4.3,9.5,9.4v7.6c0,2.1,0.1,4.1,0.3,5.3
		H304.7z M303.9,31.6c-3.5,0-6.3,0.8-6.3,3.4c0,1.7,1.2,2.6,2.7,2.6c1.7,0,3.1-1.1,3.5-2.5c0.1-0.4,0.1-0.8,0.1-1.2V31.6z"/>
	<path class="st0" d="M315.5,36c1.2,0.8,3.8,1.6,5.8,1.6c2,0,2.9-0.7,2.9-1.8c0-1.1-0.7-1.6-3.2-2.5c-4.5-1.5-6.2-4-6.2-6.5
		c0-4,3.5-7.1,8.8-7.1c2.5,0,4.8,0.6,6.1,1.2l-1.2,4.7c-1-0.5-2.8-1.2-4.7-1.2c-1.6,0-2.6,0.7-2.6,1.8c0,1,0.8,1.6,3.5,2.5
		c4.1,1.4,5.9,3.5,5.9,6.7c0,4-3.2,7-9.4,7c-2.8,0-5.4-0.6-7-1.5L315.5,36z"/>
	<polygon class="st0" points="280.5,13.4 280.5,41.9 287.2,41.9 287.2,11.9 	"/>
	<g>
		<g>
			<path class="st0" d="M336.9,43.1c-1.9,0-3.5-1.6-3.5-3.5c0-1.9,1.6-3.5,3.5-3.5c1.9,0,3.5,1.6,3.5,3.5
				C340.4,41.5,338.8,43.1,336.9,43.1z M336.9,36.6c-1.6,0-3,1.3-3,3c0,1.6,1.3,3,3,3c1.6,0,3-1.3,3-3
				C339.8,37.9,338.5,36.6,336.9,36.6z"/>
		</g>
		<g>
			<g>
				<path class="st0" d="M335.6,37.6c0.3,0,0.7-0.1,1.1-0.1c0.6,0,1,0.1,1.2,0.3c0.2,0.2,0.3,0.5,0.3,0.8c0,0.5-0.4,0.9-0.7,1v0
					c0.3,0.1,0.5,0.4,0.6,0.8c0.1,0.5,0.2,1,0.3,1.1h-0.8c-0.1-0.1-0.2-0.5-0.3-1c-0.1-0.5-0.3-0.7-0.7-0.7h-0.4v1.7h-0.7V37.6z
					 M336.3,39.3h0.4c0.5,0,0.8-0.3,0.8-0.7c0-0.4-0.3-0.6-0.8-0.6c-0.2,0-0.4,0-0.5,0V39.3z"/>
			</g>
		</g>
	</g>
	<g>
		<path class="st1" d="M6.8,17.7c0.8-1.9-0.2-4.2-0.2-4.2s-2.4,0.8-3.2,2.6c-0.8,1.9,0.2,4.2,0.2,4.2S6,19.6,6.8,17.7z"/>
		<path class="st2" d="M21.4,40.9c1.2-2.9-0.5-6.5-0.5-6.5s-3.7,1.2-4.9,4.2c-1.2,2.9,0.5,6.5,0.5,6.5S20.1,43.9,21.4,40.9z"/>
		<path class="st3" d="M17,49.4c-1,2.7,0.8,5.8,0.8,5.8s3.4-1.2,4.4-3.8c1-2.7-0.8-5.8-0.8-5.8S18,46.7,17,49.4z"/>
		<path class="st3" d="M36.3,32.1c0,0-1.5,3.9,0.1,7c1.6,3,5.7,4,5.7,4s1.5-3.9-0.1-7C40.4,33.1,36.3,32.1,36.3,32.1z"/>
		<path class="st4" d="M37.1,44.8c0,0-1.6,3.6-0.3,6.5c1.3,2.9,5.1,4,5.1,4s1.6-3.6,0.3-6.5C40.9,45.9,37.1,44.8,37.1,44.8z"/>
		<path class="st1" d="M45.6,39.8c0,0-0.8,3.3,0.8,5.6s5,2.6,5,2.6s0.8-3.3-0.8-5.6C49,40.1,45.6,39.8,45.6,39.8z"/>
		<path class="st1" d="M37.7,16.1c-1.4,2.1-0.5,5.1-0.5,5.1s3.2-0.3,4.6-2.3c1.4-2.1,0.5-5.1,0.5-5.1S39.1,14,37.7,16.1z"/>
		<path class="st2" d="M43.5,8c-1,1.9-0.1,4.4-0.1,4.4s2.6-0.6,3.6-2.5s0.1-4.4,0.1-4.4S44.5,6.1,43.5,8z"/>
		<path class="st3" d="M52,17c0.8,1.8,3.2,2.5,3.2,2.5s1.1-2.2,0.3-4c-0.8-1.8-3.2-2.5-3.2-2.5S51.2,15.2,52,17z"/>
		<path class="st2" d="M14.9,20.2c1.3,2.3,4.6,3,4.6,3s1.2-3.2-0.1-5.5c-1.3-2.3-4.6-3-4.6-3S13.6,17.9,14.9,20.2z"/>
		<path class="st3" d="M28.8,14.6c0,0,2.3-2,2.3-4.5S29,5.5,29,5.5s-2.3,2-2.3,4.5C26.6,12.5,28.8,14.6,28.8,14.6z"/>
		<path class="st4" d="M35.3,3.8C35.8,1.9,34.5,0,34.5,0S32.4,1.1,32,3c-0.4,1.9,0.9,3.8,0.9,3.8S34.9,5.6,35.3,3.8z"/>
		<path class="st5" d="M25.5,6.5c0,0,1.3-1.8,0.9-3.6c-0.4-1.8-2.3-2.8-2.3-2.8s-1.3,1.8-0.9,3.6C23.6,5.4,25.5,6.5,25.5,6.5z"/>
		<path class="st4" d="M15.6,12.2c0,0,0.9-2.4-0.1-4.3c-1-1.9-3.4-2.6-3.4-2.6s-0.9,2.4,0.1,4.3C13.2,11.5,15.6,12.2,15.6,12.2z"/>
		<path class="st5" d="M8.4,43.1c-1.4,2.3-0.5,5.5-0.5,5.5s3.3-0.5,4.7-2.8c1.4-2.3,0.5-5.5,0.5-5.5S9.8,40.8,8.4,43.1z"/>
		<path class="st5" d="M54.3,26.9c-2.9-1.3-6.5,0.4-6.5,0.4s1.2,3.8,4.2,5c2.9,1.3,6.5-0.4,6.5-0.4S57.3,28.2,54.3,26.9z"/>
		<path class="st4" d="M6.2,33.4c2.8-0.8,4.3-4,4.3-4s-3-1.8-5.8-1c-2.8,0.8-4.3,4-4.3,4S3.4,34.2,6.2,33.4z"/>
		<path class="st0" d="M50.5,23.4c2.5-0.3,5.2-0.3,7.7,0.1c-0.1-0.8-0.3-1.6-0.5-2.4c-2.5-0.5-4.9-0.6-7.4-0.4
			c-0.8,0.1-1.6,0.1-2.4,0.2c0.4-1.7,0.9-3.4,1.5-5c0.8-1.9,1.8-3.9,2.9-5.6c-0.4-0.5-0.9-1-1.3-1.5c-1.5,1.9-2.8,3.9-3.9,6
			c-1.1,2.1-2,4.4-2.6,6.8c-1,0.2-2,0.5-2.9,0.9c-2.8,1.1-5.6,2.4-8.1,4.2c-0.7,0.4-1.3,0.9-1.9,1.4c0.2-1,0.4-2,0.7-2.9
			c0.8-2.8,1.8-5.5,3-8.1c1.2-2.6,2.6-5.2,4.1-7.7c1.3-2.2,2.8-4.3,4.4-6.3c-1.1-0.6-2.2-1.1-3.4-1.6c-1.5,1.9-2.9,3.8-4.2,5.8
			c-1.7,2.6-3.2,5.2-4.6,8c-1.2,2.3-2.1,4.7-2.9,7.2c-0.8-2.8-1.7-5.6-2.8-8.3C23.9,9.8,22,5.6,19.3,1.4C18.1,1.9,17,2.4,15.9,3
			c2.2,3.9,3.9,8.4,5.3,12.9c1.3,4.2,2.3,8.5,3,12.8c-0.4-0.3-0.8-0.6-1.3-0.8c-2.3-1.4-4.7-2.5-7.2-3.5c-1.2-0.5-2.5-0.8-3.7-1.2
			c0.1-1.1,0.1-2.2,0-3.3c-0.1-1.3-0.2-2.7-0.5-4c-0.3-1.3-0.6-2.6-1.1-3.9c-0.5-1.3-1-2.4-1.9-3.6c-0.5,0.5-0.9,1-1.3,1.5
			c0.5,0.9,0.8,1.9,1.1,2.9c0.3,1.2,0.5,2.4,0.7,3.6c0.1,1.2,0.2,2.4,0.1,3.6c0,0.9-0.1,1.8-0.3,2.6c-0.3,0-0.6-0.1-0.9-0.2
			c-2.3-0.3-4.5-0.4-6.9-0.2C1,23,0.8,23.8,0.7,24.5c2.2-0.1,4.6,0.2,6.8,0.7c2.4,0.5,4.7,1.3,6.9,2.3c0.4,0.2,0.8,0.4,1.3,0.6
			c-0.6,0.8-1.2,1.6-1.8,2.3c-1.1,1.3-2.2,2.5-3.5,3.6c-2.4,2.2-5,4.3-7.7,6.1c0.2,0.6,0.5,1.1,0.8,1.7c3.1-1.7,5.9-3.6,8.6-5.8
			c1.4-1.1,2.7-2.3,3.9-3.6c0.9-0.9,1.7-1.8,2.5-2.7c0.8,0.5,1.5,1,2.3,1.5c1,0.7,1.9,1.5,2.9,2.2c0.5,0.4,1,0.9,1.5,1.4
			c0.4,3.2,0.7,6.5,0.8,9.8c0.2,2.4,0.1,4.9,0.1,7.3c0,1.9-0.1,3.8-0.2,5.7c1.2,0.2,2.4,0.3,3.7,0.3c1.4,0,2.7-0.1,4-0.3
			c-0.1-2-0.1-3.9-0.2-5.9c-0.2-2.6-0.3-5.1-0.6-7.7c-0.4-3.4-0.9-6.8-1.5-10.2c0.4-0.5,0.9-1,1.3-1.5c1-0.9,1.9-2,3-2.7
			c1.2-1.1,2.6-1.9,4-2.7c2.2,2.9,4.4,5.6,6.8,8.3c1.4,1.5,2.8,3,4.3,4.4c1.3,1.2,2.6,2.4,4.1,3.5c0.3-0.6,0.6-1.1,0.9-1.7
			c-1.2-1-2.3-2.2-3.4-3.4c-1.4-1.5-2.7-3-3.9-4.5c-2.1-2.6-4-5.3-5.9-8.1c0,0,0,0,0,0C45,24.4,47.7,23.8,50.5,23.4z"/>
	</g>
</g>
</svg>
