<?xml version="1.0" encoding="utf-8"?>
<!-- Generator: Adobe Illustrator 22.1.0, SVG Export Plug-In . SVG Version: 6.00 Build 0)  -->
<svg version="1.1" id="Layer_1" xmlns="http://www.w3.org/2000/svg" xmlns:xlink="http://www.w3.org/1999/xlink" x="0px" y="0px"
	 viewBox="0 0 80.2 28" style="enable-background:new 0 0 80.2 28;" xml:space="preserve">
<style type="text/css">
	.st0{fill:#FFFFFF;}
</style>
<path class="st0" d="M56.4,7.8c0.3-0.8-0.1-1.7-0.1-1.7s-1,0.3-1.3,1.1c-0.3,0.8,0.1,1.7,0.1,1.7S56,8.6,56.4,7.8z"/>
<path class="st0" d="M66.8,25.8c-0.7,0-1.4-0.1-2.1-0.2l0.1-2.6c0-0.2,0-0.4,0-0.6l0-2.4c0-0.2,0-0.3,0-0.5l-0.1-1.8
	c0-0.6-0.1-1.2-0.1-1.8l0-0.3l-0.1-0.1c-0.2-0.2-0.6-0.6-1-1c-0.3-0.2-0.6-0.5-0.8-0.7c-0.1-0.1-0.3-0.2-0.5-0.4l-0.2-0.1l-0.1,0.2
	c0,0-0.1,0.1-0.1,0.1c-0.1,0.2-0.3,0.3-0.5,0.5l-0.1,0.1c-0.2,0.2-0.3,0.3-0.5,0.5c-0.2,0.2-0.4,0.3-0.5,0.5l-0.1,0.1
	c-0.2,0.2-0.4,0.3-0.6,0.5l-0.1,0.1c-0.1,0.1-0.2,0.1-0.3,0.2c-0.2,0.1-0.3,0.3-0.5,0.4c-0.1,0.1-0.2,0.1-0.3,0.2
	c-0.2,0.1-0.3,0.3-0.5,0.4c-0.1,0.1-0.2,0.1-0.3,0.2c-0.2,0.1-0.3,0.2-0.5,0.3L56,18.3l-0.7,0.4c-0.1-0.3-0.3-0.6-0.4-0.9l0.5-0.4
	l0.7-0.5c0.2-0.1,0.3-0.2,0.5-0.4c0.1-0.1,0.2-0.1,0.3-0.2c0.2-0.1,0.3-0.3,0.5-0.4c0.1-0.1,0.2-0.1,0.3-0.2
	c0.2-0.1,0.3-0.3,0.5-0.4c0.1-0.1,0.2-0.2,0.2-0.2l0.1-0.1c0.2-0.2,0.3-0.3,0.5-0.5l0.1-0.1c0.2-0.2,0.3-0.3,0.5-0.5
	c0.2-0.2,0.3-0.3,0.4-0.5l0.1-0.1c0.1-0.1,0.2-0.3,0.3-0.4l0.2-0.2l-0.3-0.1c-0.2-0.1-0.5-0.2-0.8-0.4l-0.1,0
	c-0.2-0.1-0.3-0.1-0.5-0.2c-0.1,0-0.2-0.1-0.2-0.1c-0.1,0-0.3-0.1-0.4-0.1c-0.1,0-0.1,0-0.2-0.1c-0.1,0-0.3-0.1-0.4-0.1l-0.1,0
	c-0.2,0-0.3-0.1-0.5-0.1l-0.1,0c-0.2,0-0.3-0.1-0.5-0.1c-0.1,0-0.1,0-0.2,0c-0.1,0-0.3,0-0.4,0c-0.1,0-0.1,0-0.2,0
	c-0.1,0-0.2,0-0.3,0l-0.5,0c-0.1,0-0.1,0-0.2,0c-0.1,0-0.1,0-0.2,0c-0.1,0-0.3,0-0.3,0c0.1-0.4,0.1-0.8,0.2-1.2c0.1,0,0.2,0,0.3,0
	l0.6,0c0.1,0,0.1,0,0.2,0l0.4,0c0.1,0,0.2,0,0.4,0c0.1,0,0.1,0,0.2,0c0.2,0,0.3,0,0.5,0l0.1,0c0.1,0,0.1,0,0.2,0l0.2,0l0-0.3
	c0-0.4,0.1-0.8,0.1-1.2c0-0.2,0-0.5,0-0.7c0-0.2,0-0.4-0.1-0.7c0-0.2-0.1-0.4-0.1-0.7c0-0.1,0-0.2-0.1-0.3c0-0.1-0.1-0.2-0.1-0.3
	c-0.1-0.2-0.1-0.4-0.2-0.6C57,5,57,4.9,57,4.8c0-0.1-0.1-0.2-0.1-0.3c0.2-0.2,0.4-0.5,0.6-0.7c0.1,0.1,0.1,0.2,0.2,0.3
	c0.1,0.1,0.1,0.2,0.2,0.3c0.1,0.1,0.1,0.2,0.2,0.3c0.1,0.2,0.2,0.4,0.3,0.7c0,0.1,0.1,0.2,0.1,0.4c0,0.1,0.1,0.2,0.1,0.4
	c0.1,0.2,0.1,0.5,0.2,0.8c0.1,0.3,0.1,0.5,0.2,0.8c0,0.2,0.1,0.5,0.1,0.8c0,0.4,0.1,0.9,0.1,1.4c0,0.1,0,0.3,0,0.4l0,0.2l0.2,0
	c0.2,0.1,0.4,0.1,0.6,0.2c0.6,0.2,1,0.3,1.4,0.5c0.5,0.2,0.9,0.4,1.3,0.6c0.4,0.2,0.7,0.4,1,0.6l0.4,0.3L64,11.9
	c-0.1-0.3-0.1-0.6-0.2-0.9c0-0.2-0.1-0.4-0.1-0.6c0-0.1,0-0.1,0-0.2c0-0.1-0.1-0.3-0.1-0.4L63.1,8l-0.5-1.7c0-0.1-0.1-0.2-0.1-0.4
	L62,4.8c0,0-0.4-1-0.4-1.1c0-0.1-0.1-0.2-0.1-0.3L61,2.5l-0.4-0.8l-0.1-0.2c0.6-0.3,1.2-0.6,1.9-0.9l0.5,0.8l0.6,1
	c0.1,0.1,0.1,0.2,0.1,0.3c0,0.1,0.6,1.1,0.6,1.1l0.6,1.2c0.1,0.1,0.1,0.2,0.2,0.3l0.7,1.7l0.5,1.3L66.3,9l0.3-0.6
	c0.1-0.2,0.2-0.3,0.2-0.5c0-0.1,0.1-0.2,0.1-0.3c0.1-0.2,0.3-0.5,0.4-0.8c0.3-0.6,0.6-1.1,0.8-1.5c0.3-0.5,0.6-1,0.9-1.4
	c0.3-0.5,0.6-0.9,0.8-1.3c0.3-0.4,0.6-0.8,0.8-1.1c0.2-0.3,0.5-0.7,0.8-1C72,1,72.6,1.2,73.2,1.6c-0.3,0.4-0.6,0.9-0.9,1.3
	c-0.2,0.3-0.5,0.7-0.7,1.1c-0.2,0.4-0.5,0.8-0.7,1.2c-0.2,0.4-0.5,0.9-0.7,1.3C69.9,7,69.7,7.4,69.4,8l-0.3,0.7
	C69.1,8.8,69,8.9,69,9c-0.1,0.2-0.1,0.3-0.2,0.5c-0.2,0.5-0.4,1-0.5,1.4l0,0c-0.1,0.2-0.1,0.4-0.2,0.6l-0.2,0.6l0.5-0.4
	c0.2-0.1,0.4-0.3,0.6-0.4l0.1,0c0.2-0.1,0.4-0.3,0.6-0.4c0.2-0.1,0.4-0.2,0.7-0.4l0,0c0.2-0.1,0.4-0.2,0.6-0.3l0.2-0.1l0.4-0.2
	c0.1-0.1,0.2-0.1,0.4-0.1l0.1,0c0.2-0.1,0.5-0.2,0.7-0.2l0.4-0.1l0-0.1c0.1-0.2,0.1-0.4,0.2-0.6c0.2-0.6,0.6-1.5,1.1-2.4
	c0.1-0.2,0.2-0.4,0.4-0.6c0.1-0.2,0.2-0.4,0.4-0.6c0.1-0.2,0.3-0.4,0.4-0.5c0.1-0.2,0.3-0.3,0.4-0.5c0.1-0.1,0.1-0.1,0.2-0.2
	c0.2,0.2,0.4,0.5,0.6,0.7c0,0,0,0.1-0.1,0.1c-0.1,0.1-0.2,0.3-0.3,0.4c-0.1,0.2-0.2,0.3-0.3,0.5C76.2,6,76.1,6.2,76,6.3
	c-0.1,0.2-0.2,0.4-0.3,0.6c-0.2,0.6-0.4,1.2-0.6,1.9L75,9.2l0.3,0c0.1,0,0.2,0,0.3,0c0,0,0.3,0,0.3,0c0.1,0,0.1,0,0.2,0l0.7,0
	c0.1,0,0.1,0,0.2,0c0,0,0.3,0,0.3,0c0.1,0,0.3,0,0.4,0l0.7,0.1c0.1,0,0.1,0,0.2,0l0.6,0.1c0.1,0.4,0.2,0.8,0.3,1.2l-0.2,0
	c0,0-0.1,0-0.1,0l-0.7-0.1c-0.1,0-0.1,0-0.2,0l-0.6,0l-0.1,0c-0.1,0-0.2,0-0.3,0c-0.1,0-0.3,0-0.3,0c-0.1,0-0.1,0-0.2,0l-0.6,0
	c-0.1,0-0.1,0-0.2,0c0,0-0.2,0-0.3,0c-0.2,0-0.3,0-0.5,0.1c-0.1,0-0.1,0-0.2,0c-0.2,0-0.3,0.1-0.5,0.1l-0.1,0
	c-0.2,0-0.4,0.1-0.6,0.2l-0.3,0.1l-0.3,0.1c-0.1,0-0.3,0.1-0.4,0.2l-0.3,0.1c0,0,0.3,0.5,0.4,0.6l0.2,0.2c0.1,0.2,0.2,0.3,0.3,0.5
	c0.2,0.3,0.4,0.5,0.6,0.8c0.2,0.3,0.4,0.6,0.6,0.8c0.1,0.2,0.3,0.4,0.4,0.6c0.1,0.1,0.2,0.2,0.2,0.3c0.1,0.2,0.3,0.4,0.4,0.5
	c0.1,0.1,0.2,0.2,0.2,0.3l0.2,0.3c0.2,0.2,0.3,0.4,0.5,0.5c0.1,0.1,0.2,0.2,0.3,0.3c0.1,0.2,0.3,0.3,0.4,0.4l0.6,0.6l0.3,0.3
	c-0.1,0.3-0.3,0.5-0.4,0.8L77.5,19l-0.7-0.6c-0.2-0.1-0.3-0.3-0.5-0.4L76,17.7c-0.2-0.2-0.4-0.3-0.5-0.5L75.2,17L75,16.7
	c-0.2-0.2-0.3-0.3-0.5-0.5c-0.1-0.1-0.2-0.2-0.3-0.3c-0.2-0.2-0.3-0.4-0.5-0.5c-0.2-0.3-0.5-0.5-0.7-0.8c-0.2-0.3-0.4-0.5-0.6-0.8
	c-0.1-0.2-0.3-0.3-0.4-0.5l-0.2-0.2c-0.2-0.2-0.3-0.4-0.5-0.6l-0.1-0.2l-0.2,0.1c0,0-0.1,0.1-0.1,0.1c-0.2,0.1-0.3,0.2-0.5,0.3
	l-0.1,0.1c-0.4,0.3-0.7,0.6-1,0.8c-0.3,0.3-0.6,0.6-0.8,0.8c-0.2,0.2-0.4,0.5-0.6,0.7l-0.1,0.1l0,0.2c0.1,0.7,0.2,1.3,0.3,1.9
	l0.3,1.9c0,0.2,0,0.3,0.1,0.5l0.2,2.6c0,0.2,0,0.4,0.1,0.6l0.1,2.6C68.2,25.7,67.5,25.8,66.8,25.8z"/>
<path class="st0" d="M63.1,18.2c0.5-1.3-0.2-2.8-0.2-2.8s-1.6,0.5-2.1,1.8C60.2,18.5,61,20,61,20S62.6,19.4,63.1,18.2z"/>
<path class="st0" d="M61.2,22c-0.4,1.2,0.4,2.6,0.4,2.6s1.5-0.5,2-1.7c0.4-1.2-0.4-2.6-0.4-2.6S61.6,20.8,61.2,22z"/>
<path class="st0" d="M70.1,14.5c0,0-0.6,1.7,0,2.9s2.4,1.7,2.4,1.7s0.6-1.7,0-2.9C71.9,15,70.1,14.5,70.1,14.5z"/>
<path class="st0" d="M70.3,19.9c0,0-0.7,1.5-0.1,2.7c0.5,1.2,2.1,1.7,2.1,1.7s0.7-1.5,0.1-2.7C71.9,20.4,70.3,19.9,70.3,19.9z"/>
<path class="st0" d="M74.1,18.1c0,0-0.3,1.3,0.3,2.2c0.6,0.9,2,1,2,1s0.3-1.3-0.3-2.2C75.5,18.2,74.1,18.1,74.1,18.1z"/>
<path class="st0" d="M70.8,7c-0.5,0.8-0.1,2-0.1,2s1.2-0.2,1.7-1c0.5-0.8,0.1-2,0.1-2S71.3,6.2,70.8,7z"/>
<path class="st0" d="M73.1,3.4c-0.5,0.8,0,1.9,0,1.9s1.1-0.3,1.6-1.1s0-1.9,0-1.9S73.6,2.6,73.1,3.4z"/>
<path class="st0" d="M77,7.3c0.3,0.7,1.2,1.1,1.2,1.1s0.5-0.9,0.2-1.6c-0.3-0.7-1.2-1.1-1.2-1.1S76.7,6.5,77,7.3z"/>
<path class="st0" d="M60.1,8.2c0.2,1,1.4,1.6,1.4,1.6s0.8-1,0.6-2c-0.2-1-1.4-1.6-1.4-1.6S59.8,7.2,60.1,8.2z"/>
<path class="st0" d="M66.4,6c0,0,0.8-0.7,0.8-1.5s-0.7-1.6-0.7-1.6s-0.8,0.7-0.8,1.5C65.7,5.3,66.4,6,66.4,6z"/>
<path class="st0" d="M69.3,1.7c0.4-0.8,0-1.7,0-1.7s-1,0.3-1.3,1c-0.4,0.8,0,1.7,0,1.7S68.9,2.4,69.3,1.7z"/>
<path class="st0" d="M65.6,2.7c0,0,0.4-0.9,0-1.6c-0.4-0.7-1.3-1-1.3-1S64,1,64.3,1.7C64.7,2.4,65.6,2.7,65.6,2.7z"/>
<path class="st0" d="M60.3,5.4c0,0,0.5-0.9,0.2-1.8c-0.3-0.8-1.3-1.2-1.3-1.2S58.7,3.4,59,4.2C59.3,5,60.3,5.4,60.3,5.4z"/>
<path class="st0" d="M57.3,19.2c-0.6,1-0.2,2.4-0.2,2.4s1.4-0.2,2.1-1.3c0.6-1,0.2-2.4,0.2-2.4S58,18.2,57.3,19.2z"/>
<path class="st0" d="M77.8,12c-1.3-0.5-2.8,0.2-2.8,0.2s0.5,1.6,1.8,2.1c1.3,0.5,2.8-0.2,2.8-0.2S79.1,12.5,77.8,12z"/>
<path class="st0" d="M56.4,14.9c1.2-0.4,1.9-1.8,1.9-1.8s-1.3-0.8-2.6-0.4c-1.2,0.4-1.9,1.8-1.9,1.8S55.1,15.3,56.4,14.9z"/>
<g>
	<path class="st0" d="M4.5,11.8l-0.1-0.7h0C3.9,11.7,3.3,12,2.5,12c-1.3,0-2.1-1-2.1-2c0-1.7,1.5-2.5,3.9-2.5V7.3C4.2,7,4,6.5,3,6.5
		C2.3,6.5,1.6,6.7,1.2,7L0.8,5.6c0.5-0.3,1.4-0.6,2.6-0.6c2.2,0,2.9,1.3,2.9,2.8v2.3c0,0.6,0,1.2,0.1,1.6H4.5z M4.3,8.7
		c-1.1,0-1.9,0.2-1.9,1c0,0.5,0.4,0.8,0.8,0.8c0.5,0,0.9-0.3,1.1-0.8c0-0.1,0-0.2,0-0.4V8.7z"/>
	<path class="st0" d="M7.5,7.3c0-0.8,0-1.5-0.1-2.1h1.8l0.1,0.9h0c0.3-0.4,0.9-1.1,2-1.1c1.4,0,2.4,0.9,2.4,2.8v3.9h-2.1V8.2
		c0-0.9-0.3-1.4-1-1.4c-0.6,0-0.9,0.4-1,0.8C9.5,7.6,9.5,7.8,9.5,8v3.8H7.5V7.3z"/>
	<path class="st0" d="M20.1,11.7c-0.4,0.2-1.1,0.3-1.8,0.3c-2.1,0-3.5-1.3-3.5-3.4c0-1.9,1.3-3.5,3.8-3.5c0.5,0,1.1,0.1,1.6,0.3
		l-0.3,1.5c-0.2-0.1-0.6-0.2-1.1-0.2c-1.1,0-1.8,0.8-1.8,1.9c0,1.2,0.8,1.9,1.8,1.9c0.5,0,0.9-0.1,1.2-0.2L20.1,11.7z"/>
	<path class="st0" d="M22.7,9.2c0.1,0.9,0.9,1.3,1.9,1.3c0.7,0,1.3-0.1,1.8-0.3l0.3,1.4C26,11.8,25.1,12,24.2,12
		c-2.2,0-3.5-1.3-3.5-3.4c0-1.7,1-3.5,3.3-3.5c2.1,0,2.9,1.7,2.9,3.3c0,0.4,0,0.7-0.1,0.8H22.7z M25.1,7.8c0-0.5-0.2-1.3-1.2-1.3
		c-0.9,0-1.2,0.8-1.3,1.3H25.1z"/>
	<path class="st0" d="M28.2,10c0.4,0.2,1.2,0.5,1.8,0.5c0.6,0,0.9-0.2,0.9-0.6c0-0.3-0.2-0.5-1-0.8C28.5,8.8,28,8,28,7.2
		c0-1.2,1.1-2.2,2.7-2.2c0.8,0,1.5,0.2,1.9,0.4l-0.4,1.4c-0.3-0.2-0.9-0.4-1.4-0.4C30.3,6.5,30,6.7,30,7c0,0.3,0.3,0.5,1.1,0.8
		c1.3,0.4,1.8,1.1,1.8,2c0,1.2-1,2.1-2.9,2.1c-0.9,0-1.6-0.2-2.1-0.5L28.2,10z"/>
	<path class="st0" d="M36.4,3.3v1.9h1.5v1.5h-1.5v2.4c0,0.8,0.2,1.2,0.8,1.2c0.3,0,0.5,0,0.6-0.1l0,1.6c-0.3,0.1-0.8,0.2-1.3,0.2
		c-0.7,0-1.2-0.2-1.5-0.6c-0.4-0.4-0.6-1-0.6-2V6.7h-0.9V5.2h0.9V3.8L36.4,3.3z"/>
	<path class="st0" d="M42.4,5.2c-0.6,0.1-1.3,0.5-1.6,1.3h-0.1l-0.1-1.4H39C39,5.8,39,6.4,39,7.4v4.4h2.1V8.6c0-0.2,0-0.3,0-0.5
		c0.1-0.6,0.6-1,1.4-1c0.3,0,0.5,0.1,0.7,0.1L42.4,5.2z"/>
	<path class="st0" d="M45.7,5.2l1,3.2c0.1,0.4,0.2,0.9,0.3,1.2h0c0.1-0.4,0.2-0.9,0.3-1.2l0.8-3.2h2.2l-1.5,4.3
		c-0.9,2.6-1.6,3.7-2.3,4.3c-0.7,0.6-1.5,0.8-2,0.9l-0.4-1.7c0.3,0,0.6-0.2,0.9-0.4c0.3-0.2,0.6-0.5,0.9-0.8
		c0.1-0.1,0.1-0.2,0.1-0.3c0-0.1,0-0.2-0.1-0.3l-2.4-6H45.7z"/>
	<path class="st0" d="M26.2,22.2l-0.1-0.7h0c-0.4,0.5-1.1,0.8-1.9,0.8c-1.3,0-2.1-1-2.1-2c0-1.7,1.5-2.5,3.9-2.5v-0.1
		c0-0.4-0.2-0.9-1.2-0.9c-0.7,0-1.4,0.2-1.8,0.5L22.5,16c0.5-0.3,1.4-0.6,2.6-0.6c2.2,0,2.9,1.3,2.9,2.8v2.3c0,0.6,0,1.2,0.1,1.6
		H26.2z M26,19c-1.1,0-1.9,0.2-1.9,1c0,0.5,0.4,0.8,0.8,0.8c0.5,0,0.9-0.3,1.1-0.8c0-0.1,0-0.2,0-0.4V19z"/>
	<path class="st0" d="M31.6,14.1v1.4h1.5v1.5h-1.5v2.4c0,0.8,0.2,1.2,0.8,1.2c0.3,0,0.5,0,0.6-0.1l0,1.6c-0.3,0.1-0.8,0.2-1.3,0.2
		c-0.7,0-1.2-0.2-1.5-0.6c-0.4-0.4-0.6-1-0.6-2v-2.7h-0.9v-1.5h0.9v-1L31.6,14.1z"/>
	<path class="st0" d="M41.7,22.2l-0.1-0.7h0c-0.4,0.5-1.1,0.8-1.9,0.8c-1.3,0-2.1-1-2.1-2c0-1.7,1.5-2.5,3.9-2.5v-0.1
		c0-0.4-0.2-0.9-1.2-0.9c-0.7,0-1.4,0.2-1.8,0.5L38,16c0.5-0.3,1.4-0.6,2.6-0.6c2.2,0,2.9,1.3,2.9,2.8v2.3c0,0.6,0,1.2,0.1,1.6H41.7
		z M41.5,19c-1.1,0-1.9,0.2-1.9,1c0,0.5,0.4,0.8,0.8,0.8c0.5,0,0.9-0.3,1.1-0.8c0-0.1,0-0.2,0-0.4V19z"/>
	<path class="st0" d="M45.1,20.4c0.4,0.2,1.2,0.5,1.8,0.5c0.6,0,0.9-0.2,0.9-0.6s-0.2-0.5-1-0.8c-1.4-0.5-1.9-1.2-1.9-2
		c0-1.2,1.1-2.2,2.7-2.2c0.8,0,1.5,0.2,1.9,0.4l-0.4,1.4c-0.3-0.2-0.9-0.4-1.4-0.4c-0.5,0-0.8,0.2-0.8,0.5c0,0.3,0.3,0.5,1.1,0.8
		c1.3,0.4,1.8,1.1,1.8,2c0,1.2-1,2.1-2.9,2.1c-0.9,0-1.6-0.2-2.1-0.5L45.1,20.4z"/>
	<polygon class="st0" points="34.2,13.5 34.2,22.2 36.3,22.2 36.3,13 	"/>
</g>
<g>
	<path class="st0" d="M23.5,24.7l-0.2,1h0c0.1-0.2,0.3-0.3,0.5-0.3c0.3,0,0.5,0.3,0.5,0.6c0,0.5-0.4,1.1-1,1.1
		c-0.3,0-0.5-0.1-0.5-0.4c0-0.1,0-0.2,0-0.3l0.3-1.7H23.5z M23.2,26.5c0,0.1,0,0.1,0,0.2c0,0.1,0.1,0.2,0.2,0.2
		c0.3,0,0.6-0.4,0.6-0.8c0-0.2-0.1-0.3-0.3-0.3c-0.2,0-0.4,0.2-0.5,0.5L23.2,26.5z"/>
	<path class="st0" d="M25,25.5l0.1,0.8c0,0.2,0.1,0.3,0.1,0.4h0c0-0.1,0.1-0.2,0.2-0.4l0.4-0.8h0.4l-0.6,1.2
		c-0.2,0.4-0.4,0.7-0.6,0.9c-0.2,0.2-0.4,0.3-0.5,0.3l-0.1-0.3c0.1,0,0.2-0.1,0.3-0.1c0.1-0.1,0.2-0.2,0.3-0.3c0,0,0,0,0-0.1
		l-0.3-1.5H25z"/>
	<path class="st0" d="M28.3,27c-0.1,0.1-0.3,0.1-0.6,0.1c-0.6,0-1-0.4-1-0.9c0-0.5,0.2-0.9,0.5-1.1c0.2-0.2,0.5-0.3,0.8-0.3
		c0.2,0,0.4,0.1,0.5,0.1l-0.1,0.3c-0.1,0-0.2-0.1-0.4-0.1c-0.2,0-0.4,0.1-0.6,0.2c-0.2,0.2-0.3,0.5-0.3,0.8c0,0.4,0.2,0.7,0.6,0.7
		c0.2,0,0.3,0,0.5-0.1L28.3,27z"/>
	<path class="st0" d="M30.2,25.5L30,26.6c0,0.2-0.1,0.4-0.1,0.5h-0.3l0-0.3h0c-0.2,0.2-0.4,0.3-0.6,0.3c-0.2,0-0.4-0.1-0.4-0.5
		c0-0.1,0-0.2,0-0.3l0.2-0.9h0.4l-0.2,0.9c0,0.1,0,0.2,0,0.2c0,0.1,0.1,0.2,0.2,0.2c0.2,0,0.4-0.2,0.5-0.6l0.2-0.8H30.2z"/>
	<path class="st0" d="M30.4,27.1l0.5-2.4h0.4l-0.5,2.4H30.4z"/>
	<path class="st0" d="M32,25L32,25.5h0.4l-0.1,0.3h-0.4l-0.1,0.7c0,0.1,0,0.2,0,0.2c0,0.1,0,0.1,0.1,0.1c0,0,0.1,0,0.1,0l0,0.3
		c-0.1,0-0.2,0-0.3,0c-0.3,0-0.4-0.1-0.4-0.3c0-0.1,0-0.2,0-0.3l0.1-0.7h-0.2l0.1-0.3h0.2l0.1-0.4L32,25z"/>
	<path class="st0" d="M34,25.5l-0.2,1.1c0,0.2-0.1,0.4-0.1,0.5h-0.3l0-0.3h0c-0.2,0.2-0.4,0.3-0.6,0.3c-0.2,0-0.4-0.1-0.4-0.5
		c0-0.1,0-0.2,0-0.3l0.2-0.9H33l-0.2,0.9c0,0.1,0,0.2,0,0.2c0,0.1,0.1,0.2,0.2,0.2c0.2,0,0.4-0.2,0.5-0.6l0.2-0.8H34z"/>
	<path class="st0" d="M34.1,27.1l0.2-1c0-0.2,0.1-0.5,0.1-0.6h0.3c0,0.1,0,0.2,0,0.3h0c0.1-0.2,0.3-0.4,0.5-0.4c0,0,0.1,0,0.1,0
		l-0.1,0.4c0,0,0,0-0.1,0c-0.3,0-0.5,0.3-0.5,0.6l-0.1,0.7H34.1z"/>
	<path class="st0" d="M36.3,27.1c0-0.1,0-0.2,0-0.4h0c-0.2,0.3-0.4,0.4-0.6,0.4c-0.3,0-0.5-0.2-0.5-0.6c0-0.6,0.4-1.1,1.1-1.1
		c0.2,0,0.4,0,0.5,0.1l-0.2,0.8c0,0.2-0.1,0.5-0.1,0.7H36.3z M36.5,25.8c0,0-0.1,0-0.2,0c-0.4,0-0.6,0.4-0.6,0.8
		c0,0.2,0.1,0.3,0.2,0.3c0.2,0,0.4-0.2,0.5-0.6L36.5,25.8z"/>
	<path class="st0" d="M37.1,27.1l0.5-2.4h0.4l-0.5,2.4H37.1z"/>
	<path class="st0" d="M39.3,24.9l-0.4,2.3h-0.4l0.4-2.3H39.3z"/>
	<path class="st0" d="M39.4,27.1l0.2-1.1c0-0.2,0.1-0.4,0.1-0.5H40l0,0.3h0c0.2-0.2,0.4-0.3,0.6-0.3c0.2,0,0.4,0.1,0.4,0.4
		c0,0.1,0,0.2,0,0.3l-0.2,0.9h-0.4l0.2-0.9c0-0.1,0-0.1,0-0.2c0-0.1-0.1-0.2-0.2-0.2c-0.2,0-0.4,0.2-0.5,0.6l-0.1,0.8H39.4z"/>
	<path class="st0" d="M41.2,27.1l0.3-1.3h-0.2l0.1-0.3h0.2l0-0.1c0-0.2,0.1-0.4,0.3-0.5c0.1-0.1,0.3-0.2,0.4-0.2c0.1,0,0.2,0,0.2,0
		l-0.1,0.3c0,0-0.1,0-0.2,0c-0.2,0-0.3,0.2-0.3,0.4l0,0.1h0.3l-0.1,0.3h-0.3l-0.3,1.3H41.2z"/>
	<path class="st0" d="M43.9,25.5l-0.2,1.1c0,0.2-0.1,0.4-0.1,0.5h-0.3l0-0.3h0c-0.2,0.2-0.4,0.3-0.6,0.3c-0.2,0-0.4-0.1-0.4-0.5
		c0-0.1,0-0.2,0-0.3l0.2-0.9h0.4l-0.2,0.9c0,0.1,0,0.2,0,0.2c0,0.1,0.1,0.2,0.2,0.2c0.2,0,0.4-0.2,0.5-0.6l0.2-0.8H43.9z"/>
	<path class="st0" d="M44.1,26.7c0.1,0,0.2,0.1,0.4,0.1c0.2,0,0.3-0.1,0.3-0.2c0-0.1-0.1-0.2-0.2-0.3c-0.2-0.1-0.3-0.2-0.3-0.4
		c0-0.3,0.3-0.5,0.7-0.5c0.2,0,0.3,0,0.4,0.1l-0.1,0.3c-0.1,0-0.2-0.1-0.3-0.1c-0.1,0-0.2,0.1-0.2,0.2c0,0.1,0.1,0.2,0.2,0.2
		c0.2,0.1,0.3,0.2,0.3,0.4c0,0.4-0.3,0.6-0.7,0.6c-0.2,0-0.4-0.1-0.5-0.1L44.1,26.7z"/>
	<path class="st0" d="M45.4,27.1l0.3-1.6h0.4l-0.3,1.6H45.4z M45.7,25c0-0.1,0.1-0.2,0.2-0.2c0.1,0,0.2,0.1,0.2,0.2
		c0,0.1-0.1,0.2-0.2,0.2C45.8,25.3,45.7,25.2,45.7,25z"/>
	<path class="st0" d="M47.9,26.1c0,0.6-0.4,1-0.9,1c-0.4,0-0.7-0.3-0.7-0.7c0-0.6,0.4-1,0.9-1C47.6,25.4,47.9,25.8,47.9,26.1z
		 M46.6,26.5c0,0.2,0.1,0.4,0.3,0.4c0.3,0,0.5-0.4,0.5-0.7c0-0.2-0.1-0.4-0.3-0.4C46.8,25.8,46.6,26.2,46.6,26.5z"/>
	<path class="st0" d="M48,27.1l0.2-1.1c0-0.2,0.1-0.4,0.1-0.5h0.3l0,0.3h0c0.2-0.2,0.4-0.3,0.6-0.3c0.2,0,0.4,0.1,0.4,0.4
		c0,0.1,0,0.2,0,0.3l-0.2,0.9H49l0.2-0.9c0-0.1,0-0.1,0-0.2c0-0.1-0.1-0.2-0.2-0.2c-0.2,0-0.4,0.2-0.5,0.6l-0.1,0.8H48z"/>
</g>
<g>
	<g>
		<path class="st0" d="M50.1,14.9c-0.6,0-1.1-0.5-1.1-1.1c0-0.6,0.5-1.1,1.1-1.1c0.6,0,1.1,0.5,1.1,1.1
			C51.2,14.4,50.7,14.9,50.1,14.9z M50.1,13c-0.5,0-0.9,0.4-0.9,0.9c0,0.5,0.4,0.9,0.9,0.9c0.5,0,0.9-0.4,0.9-0.9
			C51,13.4,50.6,13,50.1,13z"/>
	</g>
	<g>
		<g>
			<path class="st0" d="M49.8,13.3c0.1,0,0.2,0,0.3,0c0.2,0,0.3,0,0.4,0.1c0.1,0.1,0.1,0.1,0.1,0.2c0,0.2-0.1,0.3-0.2,0.3v0
				c0.1,0,0.1,0.1,0.2,0.2c0,0.2,0.1,0.3,0.1,0.3h-0.2c0,0,0-0.1-0.1-0.3c0-0.2-0.1-0.2-0.2-0.2H50v0.5h-0.2V13.3z M50,13.8h0.1
				c0.2,0,0.2-0.1,0.2-0.2c0-0.1-0.1-0.2-0.2-0.2c-0.1,0-0.1,0-0.1,0V13.8z"/>
		</g>
	</g>
</g>
</svg>
