<?xml version="1.0" encoding="utf-8"?>
<!-- Generator: Adobe Illustrator 22.1.0, SVG Export Plug-In . SVG Version: 6.00 Build 0)  -->
<svg version="1.1" id="Layer_1" xmlns="http://www.w3.org/2000/svg" xmlns:xlink="http://www.w3.org/1999/xlink" x="0px" y="0px"
	 viewBox="0 0 100 67" style="enable-background:new 0 0 100 67;" xml:space="preserve">
<style type="text/css">
	.st0{fill:#37474F;}
</style>
<path class="st0" d="M55,0.6C36.2,3.2,20.6,16.6,21.6,27.3c1.7,16.9,20.3,20.7,30.9,18.8c10.5-1.8,16.6-7.9,15.8-14.9
	c-0.7-6-8.5-11.1-17.1-8.5c-1.2,0.4-2.7,0.9-3.9,2c0,0,5.4,1,5.9,5.8c0.4,4.5-3,7.6-6.7,7.9C33.2,39,31.1,18.6,54,15.7
	c19.8-2.5,29.2,12,22.3,23.2C66.6,54.5,37,57.5,22.2,46.4c-17.4-13.1-9.4-32.3-9.2-33C3.5,20.1-0.8,28.5,0.1,37.6
	c1.8,17.3,20,30.6,47.9,29.3c30.5-1.4,51.9-21.5,52-38.1C100,12.3,80.9-3.1,55,0.6z"/>
</svg>
