<?xml version="1.0" encoding="utf-8"?>
<!-- Generator: Adobe Illustrator 24.3.0, SVG Export Plug-In . SVG Version: 6.00 Build 0)  -->
<svg version="1.1" id="Layer_1" xmlns="http://www.w3.org/2000/svg" xmlns:xlink="http://www.w3.org/1999/xlink" x="0px" y="0px"
	 viewBox="0 0 500 85.47" style="enable-background:new 0 0 500 85.47;" xml:space="preserve">
<style type="text/css">
	.st0{fill:#FFFFFF;}
</style>
<g>
	<g>
		<path class="st0" d="M9.09,26.08c1.23-2.78-0.35-6.17-0.35-6.17s-3.57,1.12-4.8,3.9c-1.23,2.78,0.35,6.17,0.35,6.17
			S7.86,28.86,9.09,26.08z"/>
		<path class="st0" d="M30.63,60.31c1.81-4.34-0.74-9.53-0.74-9.53s-5.48,1.84-7.29,6.18c-1.81,4.34,0.74,9.53,0.74,9.53
			S28.82,64.64,30.63,60.31z"/>
		<path class="st0" d="M24.14,72.75c-1.48,3.93,1.19,8.58,1.19,8.58s5.07-1.73,6.55-5.67c1.48-3.93-1.19-8.58-1.19-8.58
			S25.62,68.82,24.14,72.75z"/>
		<path class="st0" d="M52.74,47.39c0,0-2.21,5.8,0.15,10.26c2.36,4.46,8.41,5.88,8.41,5.88s2.21-5.8-0.15-10.26
			C58.78,48.82,52.74,47.39,52.74,47.39z"/>
		<path class="st0" d="M53.89,65.97c0,0-2.37,5.3-0.4,9.58c1.97,4.29,7.53,5.94,7.53,5.94s2.37-5.3,0.4-9.58
			C59.46,67.62,53.89,65.97,53.89,65.97z"/>
		<path class="st0" d="M66.39,58.61c0,0-1.17,4.91,1.2,8.25c2.37,3.34,7.4,3.86,7.4,3.86s1.17-4.91-1.2-8.25
			C71.41,59.12,66.39,58.61,66.39,58.61z"/>
		<path class="st0" d="M54.75,23.73c-2.06,3.04-0.69,7.56-0.69,7.56s4.7-0.41,6.76-3.45c2.06-3.04,0.69-7.56,0.69-7.56
			S56.8,20.69,54.75,23.73z"/>
		<path class="st0" d="M63.3,11.87c-1.52,2.8-0.16,6.47-0.16,6.47s3.82-0.86,5.34-3.66s0.16-6.47,0.16-6.47S64.82,9.07,63.3,11.87z"
			/>
		<path class="st0" d="M75.85,25.11c1.17,2.68,4.69,3.72,4.69,3.72s1.63-3.29,0.47-5.97c-1.17-2.68-4.69-3.72-4.69-3.72
			S74.68,22.43,75.85,25.11z"/>
		<path class="st0" d="M21.11,29.77c1.91,3.44,6.84,4.35,6.84,4.35s1.83-4.66-0.08-8.1c-1.91-3.44-6.84-4.35-6.84-4.35
			S19.2,26.33,21.11,29.77z"/>
		<path class="st0" d="M41.57,21.55c0,0,3.36-2.91,3.46-6.61s-3.09-6.8-3.09-6.8s-3.36,2.91-3.46,6.61
			C38.38,18.46,41.57,21.55,41.57,21.55z"/>
		<path class="st0" d="M51.3,5.58C51.95,2.83,49.98,0,49.98,0s-3.04,1.63-3.7,4.38c-0.66,2.75,1.31,5.58,1.31,5.58
			S50.64,8.33,51.3,5.58z"/>
		<path class="st0" d="M36.8,9.6c0,0,1.9-2.66,1.31-5.27c-0.59-2.61-3.45-4.19-3.45-4.19s-1.9,2.66-1.31,5.27
			C33.94,8.02,36.8,9.6,36.8,9.6z"/>
		<path class="st0" d="M22.16,18.05c0,0,1.32-3.49-0.09-6.27c-1.41-2.78-5-3.79-5-3.79s-1.32,3.49,0.09,6.27
			C18.56,17.03,22.16,18.05,22.16,18.05z"/>
		<path class="st0" d="M11.42,63.53c-2.09,3.37-0.67,8.04-0.67,8.04s4.81-0.8,6.9-4.16c2.09-3.37,0.67-8.04,0.67-8.04
			S13.52,60.16,11.42,63.53z"/>
		<path class="st0" d="M79.33,39.69c-4.34-1.87-9.6,0.63-9.6,0.63s1.79,5.54,6.13,7.41c4.34,1.87,9.6-0.63,9.6-0.63
			S83.68,41.56,79.33,39.69z"/>
		<path class="st0" d="M8.18,49.17c4.11-1.24,6.31-5.96,6.31-5.96s-4.45-2.71-8.56-1.48c-4.11,1.24-6.31,5.96-6.31,5.96
			S4.08,50.41,8.18,49.17z"/>
		<path class="st0" d="M73.66,34.56c3.77-0.46,7.74-0.42,11.39,0.17c-0.21-1.19-0.49-2.36-0.8-3.52c-3.66-0.67-7.27-0.84-10.94-0.62
			c-1.2,0.08-2.4,0.2-3.6,0.37c0.52-2.48,1.28-4.95,2.25-7.35c1.14-2.87,2.59-5.69,4.21-8.3c-0.61-0.75-1.27-1.46-1.93-2.17
			c-2.23,2.8-4.11,5.73-5.76,8.88c-1.65,3.12-2.96,6.45-3.9,9.95c-1.47,0.37-2.92,0.78-4.35,1.31c-4.19,1.55-8.3,3.53-11.91,6.22
			c-1,0.63-1.91,1.36-2.81,2.12c0.3-1.45,0.64-2.9,1.07-4.33c1.17-4.06,2.59-8.08,4.39-11.97c1.76-3.89,3.77-7.69,6.02-11.36
			c1.97-3.21,4.16-6.39,6.44-9.3c-1.62-0.89-3.31-1.65-5.04-2.33c-2.25,2.78-4.28,5.6-6.24,8.56c-2.48,3.79-4.73,7.73-6.73,11.81
			c-1.7,3.39-3.1,6.95-4.35,10.56c-1.21-4.13-2.55-8.22-4.11-12.24c-2.58-6.54-5.44-12.8-9.33-18.92c-1.76,0.66-3.47,1.4-5.11,2.27
			c3.23,5.77,5.79,12.42,7.84,18.96c1.92,6.19,3.36,12.53,4.5,18.92c-0.61-0.41-1.21-0.82-1.86-1.17c-3.34-2.1-6.97-3.72-10.62-5.14
			c-1.81-0.66-3.66-1.23-5.53-1.7c0.09-1.6,0.14-3.2,0.05-4.8c-0.08-1.99-0.33-3.97-0.69-5.92c-0.4-1.95-0.92-3.87-1.64-5.74
			c-0.73-1.86-1.53-3.57-2.78-5.33c-0.67,0.69-1.32,1.41-1.95,2.14c0.67,1.27,1.25,2.76,1.67,4.22c0.49,1.72,0.8,3.49,1,5.27
			c0.16,1.79,0.23,3.58,0.13,5.37c-0.05,1.29-0.2,2.58-0.38,3.87c-0.44-0.07-0.86-0.19-1.3-0.26c-3.38-0.46-6.72-0.64-10.2-0.33
			c-0.26,1.14-0.46,2.3-0.63,3.47c3.25-0.13,6.78,0.29,10.09,1.03c3.52,0.8,6.95,1.95,10.22,3.45c0.62,0.3,1.24,0.62,1.86,0.93
			c-0.86,1.17-1.76,2.31-2.73,3.41c-1.6,1.86-3.31,3.64-5.12,5.33c-3.5,3.29-7.36,6.35-11.38,8.93c0.36,0.85,0.78,1.66,1.19,2.48
			c4.53-2.47,8.69-5.33,12.66-8.58c2.01-1.63,3.94-3.38,5.78-5.24c1.3-1.27,2.5-2.65,3.68-4.05c1.14,0.7,2.27,1.42,3.34,2.22
			c1.51,0.97,2.83,2.21,4.24,3.3c0.77,0.66,1.5,1.35,2.24,2.04c0.57,4.79,0.98,9.59,1.16,14.41c0.23,3.59,0.1,7.2,0.18,10.79
			c-0.05,2.82-0.18,5.63-0.29,8.44c1.79,0.23,3.6,0.38,5.45,0.38c2,0,3.95-0.18,5.88-0.45c-0.08-2.88-0.15-5.75-0.29-8.62
			c-0.33-3.78-0.46-7.55-0.96-11.31c-0.54-5.04-1.31-10.04-2.25-15.02c0.64-0.75,1.29-1.5,1.98-2.19c1.48-1.36,2.84-2.88,4.49-4.04
			c1.85-1.55,3.87-2.86,5.98-4.01c3.2,4.21,6.55,8.32,10.12,12.23c2.05,2.23,4.16,4.41,6.37,6.5c1.93,1.81,3.9,3.54,6.04,5.19
			c0.47-0.83,0.91-1.68,1.33-2.54c-1.73-1.55-3.44-3.22-5.06-4.94c-2.01-2.15-3.94-4.4-5.8-6.69c-3.08-3.82-5.96-7.81-8.7-11.88
			c0.02-0.01,0.05-0.02,0.07-0.03C65.63,36.05,69.61,35.06,73.66,34.56z"/>
		<path class="st0" d="M134.4,14.43v36.83c0,3.59,0.13,7.38,0.26,9.53h-8.82l-0.46-4.7h-0.13c-2.02,3.59-5.88,5.42-9.99,5.42
			c-7.58,0-13.65-6.47-13.65-16.39c-0.07-10.77,6.66-16.98,14.3-16.98c3.92,0,6.99,1.37,8.42,3.59h0.13v-17.3H134.4z M124.48,42.38
			c0-0.52-0.07-1.24-0.13-1.76c-0.59-2.68-2.86-4.9-5.93-4.9c-4.51,0-7.24,4.05-7.24,9.08c0,5.42,3.06,8.82,7.17,8.82
			c2.87,0,5.28-1.96,5.86-4.77c0.2-0.72,0.26-1.44,0.26-2.29V42.38z"/>
		<rect x="141.44" y="28.86" class="st0" width="9.93" height="31.93"/>
		<path class="st0" d="M171.93,51.45h0.2l6.8-22.59h9.52l-11.88,31.93h-9.93l-11.62-31.93h9.85L171.93,51.45z"/>
		<path class="st0" d="M198.3,47.99c0.33,4.11,4.37,6.07,9.01,6.07c3.4,0,6.14-0.46,8.82-1.31l1.31,6.73
			c-3.27,1.31-7.25,1.96-11.56,1.96c-10.84,0-17.04-6.27-17.04-16.26c0-8.1,5.03-17.04,16.13-17.04c10.32,0,14.24,8.03,14.24,15.93
			c0,1.7-0.2,3.2-0.33,3.92H198.3z M209.98,41.2c0-2.42-1.04-6.47-5.62-6.47c-4.18,0-5.88,3.79-6.14,6.47H209.98z"/>
		<path class="st0" d="M224.67,39.37c0-4.7-0.13-7.77-0.26-10.51h8.55l0.33,5.88h0.26c1.63-4.64,5.55-6.6,8.62-6.6
			c0.91,0,1.37,0,2.09,0.13v9.34c-0.72-0.13-1.57-0.26-2.68-0.26c-3.66,0-6.14,1.96-6.79,5.03c-0.13,0.65-0.2,1.44-0.2,2.22v16.2
			h-9.93V39.37z"/>
		<path class="st0" d="M248.96,52.11c1.83,1.11,5.62,2.42,8.55,2.42c3,0,4.24-1.04,4.24-2.68c0-1.63-0.98-2.42-4.7-3.66
			c-6.6-2.22-9.14-5.81-9.08-9.6c0-5.94,5.09-10.45,13-10.45c3.72,0,7.05,0.85,9.01,1.83l-1.76,6.86c-1.44-0.78-4.18-1.83-6.92-1.83
			c-2.42,0-3.79,0.98-3.79,2.61c0,1.5,1.24,2.29,5.16,3.66c6.07,2.09,8.62,5.16,8.69,9.86c0,5.94-4.7,10.32-13.84,10.32
			c-4.18,0-7.9-0.91-10.32-2.22L248.96,52.11z"/>
		<rect x="276.44" y="28.86" class="st0" width="9.93" height="31.93"/>
		<path class="st0" d="M312.29,53.08c-0.72,0.13-1.7,0.26-2.94,0.26c-3,0-3.92-1.76-3.92-5.62V36.17h6.23l-2.93-7.31h-3.3v-9.14
			l-9.73,2.22v6.92h-4.24v7.31h4.24v13.06c0,4.51,0.91,7.58,2.74,9.47c1.57,1.63,4.25,2.74,7.44,2.74c2.81,0,5.16-0.33,6.47-0.85
			L312.29,53.08z"/>
		<path class="st0" d="M324.32,56.47c-2.93-7.3-11.07-27.61-11.07-27.61h11.04l4.77,15.67c0.52,1.89,1.18,4.24,1.57,5.94h0.2
			c0.46-1.7,0.98-4.11,1.44-5.94l3.92-15.67h10.64l-7.44,21.03c-4.57,12.67-7.58,17.83-11.23,20.96
			c-7.66,6.58-13.95,3.73-13.95,3.73S329.54,69.5,324.32,56.47z"/>
		<path class="st0" d="M377.47,60.79l-0.59-3.21h-0.2c-2.1,2.55-5.37,3.93-9.17,3.93c-6.49,0-10.35-4.72-10.35-9.83
			c0-8.32,7.47-12.32,18.8-12.25v-0.46c0-1.7-0.92-4.13-5.83-4.13c-3.28,0-6.75,1.11-8.84,2.42l-1.83-6.42
			c2.23-1.24,6.62-2.82,12.45-2.82c10.68,0,14.08,6.29,14.08,13.82v11.14c0,3.08,0.13,6.03,0.46,7.8H377.47z M376.29,45.66
			c-5.24-0.07-9.3,1.18-9.3,5.04c0,2.55,1.7,3.8,3.93,3.8c2.49,0,4.52-1.64,5.18-3.67c0.13-0.52,0.2-1.11,0.2-1.7V45.66z"/>
		<path class="st0" d="M402.91,21.77v6.99h7.14v7.34h-7.14v11.6c0,3.87,0.92,5.63,3.93,5.63c1.24,0,2.23-0.13,2.95-0.26l0.07,7.53
			c-1.31,0.52-3.67,0.85-6.49,0.85c-3.21,0-5.9-1.11-7.47-2.75c-1.83-1.9-2.75-4.98-2.75-9.5v-13.1h-4.26v-7.34h4.26v-4.76
			L402.91,21.77z"/>
		<path class="st0" d="M451.53,60.79l-0.59-3.21h-0.2c-2.1,2.55-5.37,3.93-9.17,3.93c-6.49,0-10.35-4.72-10.35-9.83
			c0-8.32,7.47-12.32,18.8-12.25v-0.46c0-1.7-0.92-4.13-5.83-4.13c-3.28,0-6.75,1.11-8.84,2.42l-1.84-6.42
			c2.23-1.24,6.62-2.82,12.45-2.82c10.68,0,14.08,6.29,14.08,13.82v11.14c0,3.08,0.13,6.03,0.46,7.8H451.53z M450.35,45.66
			c-5.24-0.07-9.3,1.18-9.3,5.04c0,2.55,1.7,3.8,3.93,3.8c2.49,0,4.52-1.64,5.17-3.67c0.13-0.52,0.2-1.11,0.2-1.7V45.66z"/>
		<path class="st0" d="M467.04,52.08c1.83,1.11,5.63,2.42,8.58,2.42c3.01,0,4.26-1.05,4.26-2.69c0-1.64-0.98-2.42-4.72-3.67
			c-6.62-2.23-9.17-5.83-9.11-9.63c0-5.96,5.11-10.48,13.04-10.48c3.73,0,7.07,0.85,9.04,1.84l-1.77,6.88
			c-1.44-0.79-4.19-1.83-6.94-1.83c-2.42,0-3.8,0.98-3.8,2.62c0,1.51,1.25,2.29,5.18,3.67c6.09,2.1,8.65,5.18,8.71,9.89
			c0,5.96-4.72,10.35-13.89,10.35c-4.19,0-7.93-0.92-10.35-2.23L467.04,52.08z"/>
		<polygon class="st0" points="415.81,18.82 415.81,60.79 425.77,60.79 425.77,16.55 		"/>
		<path class="st0" d="M143.78,16.86c-1.82,1.82-2.46,4.46-2.07,7.31c2.85,0.39,5.5-0.25,7.31-2.07c1.82-1.82,2.46-4.46,2.07-7.31
			C148.25,14.4,145.6,15.04,143.78,16.86z"/>
		<path class="st0" d="M278.78,16.86c-1.82,1.82-2.46,4.46-2.07,7.31c2.85,0.39,5.5-0.25,7.31-2.07c1.82-1.82,2.46-4.46,2.07-7.31
			C283.25,14.4,280.6,15.04,278.78,16.86z"/>
	</g>
	<g>
		<path class="st0" d="M499.63,18.96c0,2.98-2.34,5.32-5.39,5.32c-3.01,0-5.42-2.34-5.42-5.32c0-2.92,2.4-5.26,5.42-5.26
			C497.29,13.7,499.63,16.04,499.63,18.96z M490.17,18.96c0,2.34,1.73,4.2,4.1,4.2c2.31,0,4.01-1.86,4.01-4.17
			c0-2.34-1.7-4.23-4.04-4.23C491.9,14.76,490.17,16.65,490.17,18.96z M493.41,21.72h-1.22v-5.26c0.48-0.1,1.15-0.16,2.02-0.16
			c0.99,0,1.44,0.16,1.83,0.38c0.29,0.22,0.51,0.64,0.51,1.15c0,0.58-0.45,1.03-1.09,1.22v0.06c0.51,0.19,0.8,0.58,0.96,1.28
			c0.16,0.8,0.26,1.12,0.38,1.32h-1.31c-0.16-0.19-0.26-0.67-0.42-1.28c-0.1-0.58-0.42-0.83-1.09-0.83h-0.58V21.72z M493.44,18.74
			h0.58c0.67,0,1.22-0.22,1.22-0.77c0-0.48-0.35-0.8-1.12-0.8c-0.32,0-0.55,0.03-0.67,0.06V18.74z"/>
	</g>
</g>
</svg>
